<?xml version="1.0" encoding="UTF-8"?>
<!DOCTYPE svg  PUBLIC '-//W3C//DTD SVG 20010904//EN'  'http://www.w3.org/TR/2001/REC-SVG-20010904/DTD/svg10.dtd'>
<svg xmlns="http://www.w3.org/2000/svg" width="250" height="250" viewBox="100 620 900 600" preserveAspectRatio="xMidYMid meet">
<g transform="translate(0 1024) scale(.1 -.1)">
<path d="m2450 6905c-297-46-619-205-833-413-476-463-646-1185-431-1832 171-516 577-938 1049-1093 139-46 213-58 395-64 263-8 439 28 667 137 165 79 285 163 422 295 282 272 453 596 527 997 24 131 29 400 10 539-101 719-601 1277-1272 1420-130 28-397 34-534 14zm439-151c583-85 1068-562 1202-1182 33-153 38-456 10-625-20-120-92-370-110-381-4-3-11 121-14 276-6 236-10 286-23 307-16 24-17 24-30 6-12-16-13-85-8-400l6-380-37-43c-20-23-41-40-46-36-5 3-9 213-9 505 0 519-2 543-42 577-33 27-169 37-325 24-301-25-513-92-674-212l-56-41-7-106c-7-116-9-1023-2-1023 3 0 35 16 73 35 186 95 416 139 779 152 120 4 193 2 197-4 3-5-26-44-66-85l-72-76-150-7c-384-17-549-53-730-160-74-44-92-42-189 20-115 74-271 114-519 135-70 5-172 10-227 10h-98l-71 76c-40 42-70 82-68 88 5 14 239 11 417-4 226-20 452-78 565-145 24-14 46-25 49-25s6 250 6 555v555l-49 39c-181 142-464 222-792 224-181 1-215-7-246-52-17-24-18-58-14-540 4-557 5-540-50-470l-28 34-8 394c-6 277-11 395-19 398-23 8-28-39-34-317l-5-285-37 110c-48 142-65 211-83 337-78 551 149 1135 568 1459 311 241 683 340 1066 283zm-609-2868c119-22 155-34 212-73 66-46 136-73 188-73 49 0 130 30 176 65 49 38 122 61 244 79 141 20 365 32 357 19-4-6-37-29-74-51-213-125-415-187-643-198-206-10-399 24-581 102-85 36-243 127-255 146-9 15 272 3 376-16z"/>
<path d="m2201 6376c-26-58-35-68-80-91-66-33-66-52 2-91 44-25 55-38 74-84 29-73 49-73 88 2 23 44 40 63 80 85 27 16 50 35 50 42s-25 29-55 49c-52 35-62 49-92 116-21 49-36 43-67-28z"/>
<path d="m2937 6406c-82-30-149-94-190-184-18-38-22-65-22-147 0-118 20-171 95-245 61-62 128-92 216-98 80-5 132 8 182 45 26 20 31 28 21 39-6 8-19 14-28 14-29 1-98 37-140 76-54 48-86 104-107 184-23 90-7 178 46 258 21 31 36 60 34 64-8 12-65 9-107-6z"/>
<path d="m3411 6111c-11-21-36-48-56-60-41-24-39-35 11-56 22-9 40-27 51-49 9-20 20-36 25-36 4 0 16 17 27 39 11 21 37 48 57 60 40 24 40 26-8 49-19 10-41 33-51 55-10 20-23 37-28 37s-17-17-28-39z"/>
<path d="m1814 5921c-22-51-31-61-75-81-27-13-50-27-50-32-1-4-2-13-3-19-1-5 22-22 49-37 41-22 55-38 80-87 40-80 55-81 88-6 23 53 33 64 82 92 30 17 55 36 55 42 0 7-26 25-57 42-50 26-59 36-81 87-34 78-54 78-88-1z"/>
<path d="m2455 5790c-8-16-29-40-45-52-17-12-30-25-30-30s16-16 35-25c23-11 38-27 46-50 6-18 15-33 20-33s20 17 33 38 36 46 50 55c33 22 33 30-4 44-16 6-39 27-51 47-26 44-34 45-54 6z"/>
<path d="m5132 5838c-9-9-12-62-12-190v-178l-50 34c-156 107-371 21-451-181-19-47-23-77-23-163-1-97 2-110 30-170 42-89 84-134 160-171 55-27 76-32 137-32 80 0 121 15 175 66l32 31v-36c0-51 17-61 94-53 36 4 69 12 73 19 4 6 6 241 3 521l-5 510-75 3c-50 2-79-1-88-10zm-108-462c71-29 112-124 104-238-5-79-31-133-77-163-73-46-161-40-225 16-78 68-89 229-24 326 44 64 145 91 222 59z"/>
<path d="m5725 5526c-28-13-63-38-78-55l-27-33v39c0 61-8 67-86 60-37-4-71-10-75-14-6-6-14-600-9-711 0-10 20-12 83-10l82 3 5 230c5 221 6 231 28 263 34 47 74 64 141 61 31-2 62 0 69 4 8 6 12 35 12 87 0 68-3 81-19 90-31 16-72 12-126-14z"/>
<path d="m6133 5536c-92-30-166-97-210-191-26-55-28-70-28-175 0-104 3-121 27-172 71-151 208-226 381-207 101 11 247 102 247 154 0 14-87 65-110 65-6 0-28-13-48-29-127-99-294-45-326 106l-7 32 251-2c213-2 252 0 261 13 6 9 8 45 5 90-10 132-79 241-189 297-63 32-186 41-254 19zm158-136c19-5 47-22 62-37 29-31 61-99 52-113s-345-13-345 1c0 27 43 100 71 120 52 37 100 46 160 29z"/>
<path d="m6845 5532c-69-24-110-55-141-108-23-39-25-48-13-59 13-13 111-55 127-55 4 0 16 14 26 31 20 35 85 69 131 69 51 0 110-34 128-73 9-19 17-46 17-60 0-29 4-28-188-48-207-21-282-78-282-216 0-72 25-130 74-170 96-78 288-73 365 11 33 35 39 33 43-11l3-38 72-3c117-5 110-25 106 296-3 264-4 279-25 319-48 90-147 139-262 131-77-6-135-32-179-82l-30-35-28 36c-57 75-198 106-289 64z"/>
<path d="m7665 5531c-22-10-51-31-65-46l-25-27-5 34-5 33h-75-75v-360-360h80 80l5 242c5 265 6 267 73 317 35 26 108 26 145-1 58-42 62-65 62-325v-238h85 85v243c0 222 2 245 20 274 28 46 64 66 116 65 50 0 85-19 111-59 16-23 19-60 23-273l5-245 67-3c97-4 110-25 106 296-3 264-4 279-25 319-48 90-147 139-262 131-77-6-135-32-179-82l-30-35-28 36c-57 75-198 106-289 64z"/>
<path d="m8752 5532c-99-36-151-110-152-216 0-116 55-167 228-207 48-11 100-25 115-31 79-31 54-136-37-153-63-12-107 3-155 52l-43 46-53-12c-97-22-106-49-44-124 96-117 330-137 457-40 44 33 82 114 82 173 0 61-35 128-85 162-25 18-82 39-154 57-130 32-157 52-147 106 16 78 141 93 211 25 32-31 35-32 72-20 58 19 93 39 93 53 0 22-80 95-128 119-65 31-187 35-260 10z"/>
</g>
</svg>
