<?xml version="1.0" encoding="UTF-8"?>
<!DOCTYPE svg  PUBLIC '-//W3C//DTD SVG 20010904//EN'  'http://www.w3.org/TR/2001/REC-SVG-20010904/DTD/svg10.dtd'>
<svg width="1024pt" height="1024pt" version="1.0" viewBox="0 0 1024 1024" xmlns="http://www.w3.org/2000/svg">
<g transform="translate(0 1024) scale(.1 -.1)">
<path d="m1428 9031c-161-52-279-190-308-359-7-48-10-1053-8-3572l3-3505 24-60c61-151 163-246 310-287 63-17 207-18 3666-18 3920 0 3649-4 3763 54 66 33 141 103 179 167 68 114 63-195 63 3689 0 2916-3 3524-14 3565-36 136-122 242-244 302l-76 38-3650 2c-3519 2-3653 1-3708-16zm3962-736c376-47 738-192 1040-419 680-510 1004-1380 834-2236-89-446-332-892-656-1206-406-392-931-606-1488-605-336 0-619 68-930 222-632 314-1076 907-1217 1625-25 130-27 157-27 409-1 238 2 284 21 390 73 391 237 750 482 1048 132 162 342 346 529 464 251 158 595 277 902 312 125 14 378 12 510-4zm-2040-4825c19-19 20-33 20-538 0-390-3-521-12-530-7-7-40-12-80-12-74 0-88 11-88 65v27l-37-32c-59-53-108-70-198-70-100 0-163 21-225 77-164 148-174 459-20 627 114 123 318 141 431 39l39-35v201 201h75c62 0 79-4 95-20zm618-292c7-7 12-43 12-94v-81l-71-6c-87-7-126-29-159-88-24-43-25-51-28-259-1-118-5-225-7-237-5-21-11-23-84-23-54 0-82 4-90 14-8 9-10 121-9 392l3 379 75 3c87 3 100-6 100-72 1-36 2-38 12-21 20 38 53 68 93 86 45 21 135 25 153 7zm596-21c68-31 134-96 165-161 41-89 53-245 19-268-7-5-120-6-270-2l-258 6v-23c0-45 41-110 88-140 84-53 171-48 255 16 25 19 50 35 55 35 21 0 124-53 129-67 9-24-66-91-146-131-73-36-78-37-185-37-100 0-117 3-168 27-74 34-146 107-184 183-27 57-29 67-29 185 0 121 1 128 32 190 51 103 128 172 229 204 73 24 196 15 268-17zm801 7c61-22 139-96 155-150 18-57 26-589 10-609-16-19-140-21-158-3-7 7-12 27-12 46v34l-32-28c-61-51-125-74-208-74-162 1-254 86-255 235 0 59 4 77 28 118 56 95 146 127 355 127h112v35c0 47-22 98-51 119-16 11-44 16-87 16-75 0-132-25-158-70-24-40-36-43-97-20-74 28-81 34-74 62 9 36 83 116 131 140 96 50 236 59 341 22zm824 10c37-11 66-28 95-58l41-42 23 27c34 42 122 80 195 86 120 10 228-45 280-141 21-40 22-50 22-346v-305h-85-85l-6 260c-4 218-8 265-22 292-26 49-61 68-127 68-65 0-101-19-130-68-18-29-20-52-20-275 0-149-4-251-10-263-9-16-22-19-83-19-44 0-78 5-85 12-9 9-12 80-12 257 0 214-2 250-18 280-27 53-65 76-125 75-70-1-114-25-138-77-16-37-19-68-19-279 0-130-3-243-6-252-5-13-23-16-90-16-78 0-84 1-89 23-3 12-4 189-3 392l3 370 68 3c80 3 97-6 97-54 0-19 5-34 10-34 6 0 10 4 10 10 0 13 71 59 117 76 51 18 128 17 192-2zm1238-13c53-24 143-108 143-134 0-14-104-67-130-67-7 0-29 15-50 34-44 40-99 52-159 36-71-19-90-80-36-116 12-8 75-26 139-40 65-13 134-33 155-44 72-36 111-105 111-195 0-74-19-117-75-172-64-62-123-83-234-83-144 0-251 53-292 144-22 50-17 57 62 86l60 23 35-41c56-66 154-79 232-32 26 16 32 26 32 53 0 46-23 64-106 83-169 39-230 62-267 103-44 49-61 100-54 166 10 103 66 170 170 207 71 25 192 20 264-11z"/>
<path d="m5045 8123c-845-39-1549-577-1822-1391-142-426-134-930 23-1350 30-79 131-302 137-302 1 0 3 222 5 493 2 270 6 500 8 510 11 38 106 63 118 31 3-9 6-295 6-637 0-725-12-649 132-802l90-95h101c332-1 809-64 1025-136 40-13 97-41 128-61 46-31 67-38 118-41 58-4 64-2 122 38 74 49 161 80 325 115 224 47 601 84 860 85h86l85 88c47 49 99 108 114 132l29 44 5 640 5 641 38-1c25-1 46-9 60-23 22-22 22-22 20-516-1-273 2-493 7-490 4 2 33 62 65 132 133 296 187 547 186 865-1 333-64 611-205 903-327 677-968 1096-1721 1127-49 2-117 3-150 1zm569-449c3-9-7-34-25-61-54-78-73-145-73-263-1-103 0-108 36-181 60-121 159-209 283-251 40-13 51-21 53-41 3-20-4-27-46-45-236-102-491-14-600 207-36 73-37 77-37 190s1 118 37 194c57 120 156 214 266 253 52 18 99 18 106-2zm-1049-62c28-78 51-103 114-126 28-10 55-24 61-31 19-23-5-51-55-65-64-18-100-55-120-122-28-98-70-104-99-13-22 71-56 110-114 131-92 34-94 62-8 95 78 29 93 49 141 187 3 8 16 12 31 10 22-3 30-13 49-66zm1610-343c7-31 44-66 82-75 34-9 30-41-6-49-37-8-67-41-78-85-13-49-38-51-53-3-16 49-35 70-76 85-40 14-45 43-11 52 36 9 74 43 82 73 15 61 47 62 60 2zm-2108-237c27-80 43-98 121-134 84-38 83-60-5-103-83-41-89-47-113-120-12-35-27-69-35-75-24-20-50 5-68 64-23 73-56 110-118 132-92 33-91 59 5 103 70 32 97 62 118 136 15 53 27 67 52 63 16-2 26-18 43-66zm821-170c13-44 34-65 77-79s44-39 2-52c-43-15-63-36-74-81-13-49-41-47-58 4-16 47-27 58-68 72-44 15-43 44 3 59 33 11 58 44 74 98 9 30 32 19 44-21zm-736-507c168-18 353-54 479-95 123-40 322-139 382-191l47-41v-749c0-412-3-749-7-749s-16 9-27 19c-34 31-180 100-290 136-118 39-297 78-441 96-102 13-404 18-575 9l-95-5-3 758c-1 530 1 764 9 778 20 39 64 48 229 49 85 0 217-7 292-15zm2423 1c18-8 38-24 44-35 8-15 10-237 7-777-2-416-7-758-10-761s-54 0-113 6c-452 47-1037-60-1274-235l-49-36v755 756l43 34c180 145 519 259 882 296 143 15 431 13 470-3z"/>
<path d="m3944 4422c10-16 186-131 276-180 95-52 269-122 385-155 377-107 749-99 1124 25 156 52 347 146 487 240 129 86 129 86-86 68-194-15-348-35-507-65-176-34-249-57-308-100-71-50-134-69-214-63-70 5-104 19-186 74-57 38-146 63-350 99-250 44-635 79-621 57z"/>
<path d="m2965 3015c-5-2-22-6-38-9-47-11-105-72-122-129-39-131 0-257 95-304 115-59 244 2 279 132 30 112-15 247-98 289-27 14-99 27-116 21z"/>
<path d="m4385 3030c-82-13-146-71-161-148l-6-32h186 186v33c0 94-97 163-205 147z"/>
<path d="m5220 2740c-122-10-180-46-180-113 0-63 49-97 138-97 104 0 182 76 182 177 0 49 14 46-140 33z"/>
</g>
</svg>
